<svg width="18" height="13" viewBox="0 0 18 13" fill="none" xmlns="http://www.w3.org/2000/svg">
<path fill-rule="evenodd" clip-rule="evenodd" d="M17.0186 0.965145C17.2981 1.24465 17.4995 1.5925 17.6028 1.97406C18.1973 4.36711 18.0599 8.14668 17.6143 10.6321C17.511 11.0137 17.3096 11.3615 17.0301 11.6411C16.7506 11.9206 16.4028 12.122 16.0212 12.2252C14.6244 12.6062 9.00249 12.6062 9.00249 12.6062C9.00249 12.6062 3.38048 12.6062 1.98363 12.2252C1.60208 12.122 1.25424 11.9206 0.974747 11.641C0.695251 11.3615 0.493853 11.0137 0.390606 10.6321C-0.207412 8.24948 -0.0435106 4.46759 0.379004 1.98566C0.48224 1.60409 0.683634 1.25623 0.963131 0.976707C1.24263 0.697185 1.59047 0.495761 1.97203 0.392491C3.36888 0.0115314 8.99102 0 8.99102 0C8.99102 0 14.6129 0 16.0097 0.38096C16.3913 0.484223 16.7391 0.685637 17.0186 0.965145ZM11.8655 6.30306L7.20176 9.00437V3.60174L11.8655 6.30306Z" fill="white"/>
</svg>
