<svg width="18" height="18" viewBox="0 0 18 18" fill="none" xmlns="http://www.w3.org/2000/svg">
<path d="M13.4693 16.7931C11.6021 17.7886 8.72922 17.8571 6.89621 16.1005C4.14215 13.4592 6.05167 9.67341 6.05167 9.67341L6.09294 9.70764C6.37177 9.9311 8.18868 11.2568 10.4505 9.74891C11.5497 9.01611 12.0359 6.82373 10.6367 5.38732C9.915 4.64646 7.02103 3.74656 4.18745 7.10155C2.41785 9.19729 2.39772 14.4074 6.4986 17.6135C6.4986 17.6135 1.98803 16.1589 1.31663 10.6428C0.694553 5.52925 4.03747 1.54714 9.18219 1.5099C13.731 1.47668 15.5731 5.23532 14.9973 8.21989C14.3783 11.4259 10.2391 12.7425 7.76188 11.595C7.56962 12.4375 7.31093 14.3209 8.51079 15.3768C10.4787 17.1092 14.9118 16.8032 17.2622 12.5674C17.7353 11.4732 18 10.2683 18 9C18 4.02942 13.9706 0 9 0C4.02941 0 0 4.02942 0 9C0 13.9706 4.02941 18 9 18C10.8995 18 12.658 17.4091 14.1105 16.4045C13.9072 16.5404 13.6968 16.6723 13.4693 16.7931Z" fill="url(#paint0_linear_0_104)"/>
<defs>
<linearGradient id="paint0_linear_0_104" x1="4.83297" y1="3.05556" x2="13.8534" y2="15.9208" gradientUnits="userSpaceOnUse">
<stop stop-color="#CCE70B"/>
<stop offset="0.1621" stop-color="#C9E60C"/>
<stop offset="0.2924" stop-color="#BFE10E"/>
<stop offset="0.4115" stop-color="#AED912"/>
<stop offset="0.5233" stop-color="#96CE17"/>
<stop offset="0.6061" stop-color="#80C41C"/>
<stop offset="1" stop-color="#4FA0CA"/>
</linearGradient>
</defs>
</svg>
