<svg width="207" height="51" viewBox="0 0 207 51" fill="none" xmlns="http://www.w3.org/2000/svg">
<path d="M77.9164 33.9421C77.9164 34.4383 77.7262 34.8404 77.3459 35.1485C76.9656 35.4565 76.496 35.6105 75.9371 35.6105C75.2227 35.6105 74.4938 35.2226 73.7562 34.4469L66.0093 26.1931L65.8422 26.0448V33.1806C65.8422 34.8005 65.122 35.6105 63.6873 35.6105C62.2929 35.6105 61.5957 34.7948 61.5957 33.1606V16.0399C61.5957 14.3857 62.4744 13.5614 64.2375 13.5614H69.0199C71.4486 13.5614 73.4105 14.0891 74.9058 15.1415C76.5335 16.2737 77.3459 17.9022 77.3459 20.027C77.3459 23.7033 75.1506 25.6797 70.7572 25.9564L76.8446 31.9456C77.5591 32.6415 77.9164 33.306 77.9164 33.9421ZM72.9323 20.1896C72.9323 18.0534 71.6099 16.9867 68.9681 16.9867H65.8422V23.3924C66.404 23.5122 67.3317 23.5721 68.631 23.5721C71.5005 23.5721 72.9323 22.4455 72.9323 20.1896Z" fill="white"/>
<path d="M96.4092 26.2843C96.4092 26.9403 96.1701 27.4508 95.689 27.8187C95.2079 28.1866 94.5885 28.3692 93.8279 28.3692H83.6696C83.7128 29.5413 84.1824 30.4911 85.0784 31.2155C85.9715 31.9399 87.0778 32.3021 88.3973 32.3021C89.4921 32.3021 90.728 31.9884 92.1022 31.3638C93.4764 30.7392 94.2312 30.4255 94.3666 30.4255C95.4845 30.4255 96.0434 30.9331 96.0434 31.9456C96.0434 32.265 95.8763 32.6215 95.5421 33.018C94.8276 33.8508 93.7357 34.5067 92.2635 34.983C90.97 35.3994 89.6448 35.6076 88.2849 35.6076C85.6316 35.6076 83.4708 34.772 81.797 33.1035C80.2125 31.515 79.4231 29.5185 79.4231 27.1143C79.4231 24.7899 80.2327 22.8077 81.8489 21.1706C83.4651 19.5307 85.5653 18.7122 88.1524 18.7122C90.4255 18.7122 92.3701 19.4623 93.9892 20.9624C95.5997 22.4655 96.4092 24.2394 96.4092 26.2843ZM92.229 25.7767C92.1829 24.6644 91.7997 23.7318 91.0766 22.976C90.3506 22.2202 89.3768 21.8437 88.1495 21.8437C86.9222 21.8437 85.8909 22.2202 85.0554 22.976C84.2199 23.7318 83.7561 24.6644 83.6668 25.7767H92.229Z" fill="white"/>
<path d="M114.7 33.0779C114.7 34.6864 113.98 35.4907 112.543 35.4907C111.151 35.4907 110.454 34.6864 110.454 33.0779V25.8366C110.454 23.3553 109.273 22.1118 106.91 22.1118C104.568 22.1118 103.398 23.3467 103.398 25.8194V33.0265C103.398 34.6693 102.701 35.4878 101.31 35.4878C99.8722 35.4878 99.1519 34.6664 99.1519 33.0237V21.3845C99.1519 19.7617 99.8549 18.9489 101.258 18.9489C102.016 18.9489 102.572 19.217 102.929 19.7532C103.041 20.0327 103.162 20.3179 103.298 20.6173L103.332 20.6772C104.47 19.4651 106.086 18.8605 108.181 18.8605C110.298 18.8605 111.915 19.4223 113.03 20.5432C114.144 21.6669 114.7 23.1813 114.7 25.0865V33.0779Z" fill="white"/>
<path d="M134.668 27.2084C134.668 29.5727 133.911 31.5492 132.395 33.1378C130.814 34.8062 128.716 35.6418 126.109 35.6418C123.545 35.6418 121.448 34.7976 119.823 33.1092C118.284 31.5007 117.515 29.5328 117.515 27.2084C117.515 24.8441 118.273 22.8676 119.788 21.279C121.416 19.5706 123.522 18.715 126.109 18.715C128.739 18.715 130.845 19.5592 132.43 21.2476C133.919 22.8362 134.668 24.8241 134.668 27.2084ZM126.106 22.1432C124.646 22.1432 123.522 22.6822 122.735 23.7574C122.084 24.6729 121.759 25.8195 121.759 27.1941C121.759 28.5488 122.096 29.6839 122.77 30.6023C123.557 31.6775 124.669 32.2166 126.106 32.2166C127.567 32.2166 128.679 31.6775 129.442 30.6023C130.093 29.7039 130.419 28.5688 130.419 27.1941C130.419 25.8394 130.093 24.7043 129.442 23.786C128.656 22.6908 127.544 22.1432 126.106 22.1432Z" fill="white"/>
<path d="M150.955 20.5974C150.955 20.9368 150.865 21.3218 150.687 21.761L145.703 33.8479C145.213 35.023 144.432 35.6105 143.36 35.6105C142.268 35.6105 141.465 34.9944 140.952 33.7624L135.87 21.607C135.737 21.2904 135.668 20.951 135.668 20.5945C135.668 20.0584 135.852 19.6277 136.218 19.2997C136.587 18.9717 137.071 18.8092 137.673 18.8092C138.676 18.8092 139.379 19.3653 139.779 20.4776L143.392 30.4283L146.97 20.3008C147.327 19.3054 148.007 18.8063 149.01 18.8063C150.306 18.8063 150.955 19.4024 150.955 20.5974Z" fill="white"/>
<path d="M168.811 33.0522C168.811 34.6779 168.131 35.4907 166.771 35.4907C165.947 35.4907 165.388 35.1684 165.1 34.521C165.034 34.2672 164.921 33.9135 164.766 33.4629H164.731C163.481 34.8148 161.833 35.4907 159.782 35.4907C157.373 35.4907 155.423 34.6208 153.931 32.8811C152.571 31.2811 151.891 29.3845 151.891 27.1913C151.891 25.4715 152.314 23.9314 153.161 22.5681C154.052 21.0879 155.334 20.0099 157.007 19.3368C157.987 18.9432 158.981 18.7436 159.983 18.7436C161.879 18.7436 163.472 19.3995 164.766 20.7086C164.832 20.5289 164.933 20.2609 165.065 19.9044C165.4 19.2085 165.967 18.8605 166.771 18.8605C168.131 18.8605 168.811 19.6648 168.811 21.2705V33.0522ZM160.436 22.2316C158.981 22.2316 157.872 22.745 157.111 23.7717C156.463 24.6615 156.137 25.7852 156.137 27.1485C156.137 28.4718 156.451 29.5784 157.077 30.4654C157.837 31.5321 158.923 32.0654 160.335 32.0654C161.79 32.0654 162.896 31.5406 163.66 30.4939C164.308 29.6269 164.633 28.5089 164.633 27.1485C164.633 25.8252 164.319 24.7214 163.694 23.8316C162.931 22.7649 161.845 22.2316 160.436 22.2316Z" fill="white"/>
<path d="M181.15 20.5831C181.15 21.356 180.749 21.8523 179.946 22.069C179.565 22.1689 178.808 22.2173 177.673 22.2173V33.0779C177.673 34.6864 176.958 35.4878 175.532 35.4878C174.172 35.4878 173.492 34.675 173.492 33.0494V22.2288H172.858C172.279 22.2288 171.761 22.0804 171.303 21.781C170.845 21.4844 170.617 21.0851 170.617 20.5888C170.617 19.4965 171.576 18.9489 173.492 18.9489V16.0598C173.492 14.4712 174.184 13.6755 175.567 13.6755C176.97 13.6755 177.673 14.4798 177.673 16.0855V18.9432C178.811 18.9432 179.568 18.9946 179.946 19.0915C180.749 19.314 181.15 19.8102 181.15 20.5831Z" fill="white"/>
<path d="M187.203 14.9019C187.203 15.5179 186.964 16.0456 186.483 16.4819C186.004 16.9183 185.417 17.1379 184.728 17.1379C184.037 17.1379 183.446 16.9211 182.956 16.4819C182.466 16.0456 182.222 15.5179 182.222 14.9019C182.222 14.2858 182.466 13.7639 182.956 13.339C183.446 12.9112 184.037 12.6973 184.728 12.6973C185.396 12.6973 185.975 12.9169 186.468 13.3532C186.958 13.7896 187.203 14.3058 187.203 14.9019ZM186.837 33.0522C186.837 34.6779 186.128 35.4907 184.714 35.4907C183.299 35.4907 182.59 34.6779 182.59 33.0522V21.3047C182.59 19.679 183.299 18.8662 184.714 18.8662C186.128 18.8662 186.837 19.6705 186.837 21.2762V33.0522Z" fill="white"/>
<path d="M207.001 27.2084C207.001 29.5727 206.243 31.5492 204.728 33.1378C203.146 34.8062 201.049 35.6418 198.441 35.6418C195.877 35.6418 193.78 34.7976 192.155 33.1092C190.617 31.5007 189.847 29.5328 189.847 27.2084C189.847 24.8441 190.605 22.8676 192.121 21.279C193.748 19.5706 195.854 18.715 198.441 18.715C201.072 18.715 203.178 19.5592 204.762 21.2476C206.255 22.8362 207.001 24.8241 207.001 27.2084ZM198.441 22.1432C196.981 22.1432 195.857 22.6822 195.071 23.7574C194.42 24.6729 194.094 25.8195 194.094 27.1941C194.094 28.5488 194.431 29.6839 195.105 30.6023C195.892 31.6775 197.004 32.2166 198.441 32.2166C199.902 32.2166 201.014 31.6775 201.778 30.6023C202.429 29.7039 202.754 28.5688 202.754 27.1941C202.754 25.8394 202.429 24.7043 201.778 23.786C200.991 22.6908 199.879 22.1432 198.441 22.1432Z" fill="white"/>
<path d="M38.5502 47.5804C33.206 50.4011 24.9837 50.595 19.7375 45.6182C11.8552 38.1345 17.3203 27.408 17.3203 27.408L17.4385 27.505C18.2365 28.1381 23.4366 31.8943 29.9101 27.6219C33.0562 25.5456 34.4477 19.3339 30.4431 15.2641C28.3775 13.165 20.0947 10.6153 11.9848 20.1211C6.92007 26.059 6.86245 40.8211 18.5995 49.9048C18.5995 49.9048 5.6899 45.7836 3.7683 30.1545C1.98786 15.6662 11.5555 4.38357 26.2801 4.27804C39.2992 4.18393 44.5714 14.8334 42.9234 23.2897C41.1517 32.3734 29.3051 36.1038 22.2151 32.8525C21.6648 35.2397 20.9244 40.5758 24.3585 43.5676C29.9908 48.476 42.6786 47.6089 49.4056 35.6076C50.7597 32.5074 51.5174 29.0936 51.5174 25.5C51.5174 11.4167 39.9849 0 25.7587 0C11.5325 0 0 11.4167 0 25.5C0 39.5833 11.5325 51 25.7587 51C31.1951 51 36.2281 49.3259 40.3853 46.4795C39.8034 46.8646 39.2012 47.2382 38.5502 47.5804Z" fill="url(#paint0_linear_360_5409)"/>
<defs>
<linearGradient id="paint0_linear_360_5409" x1="13.8323" y1="8.65742" x2="39.3013" y2="45.3506" gradientUnits="userSpaceOnUse">
<stop stop-color="#CCE70B"/>
<stop offset="0.1621" stop-color="#C9E60C"/>
<stop offset="0.2924" stop-color="#BFE10E"/>
<stop offset="0.4115" stop-color="#AED912"/>
<stop offset="0.5233" stop-color="#96CE17"/>
<stop offset="0.6061" stop-color="#80C41C"/>
<stop offset="1" stop-color="#4FA0CA"/>
</linearGradient>
</defs>
</svg>
